<?xml version="1.0" encoding="UTF-8"?>
<svg id="Layer_1" xmlns="http://www.w3.org/2000/svg" version="1.1" xmlns:xlink="http://www.w3.org/1999/xlink" viewBox="0 0 1024 1024">
  <!-- Generator: Adobe Illustrator 29.5.0, SVG Export Plug-In . SVG Version: 2.1.0 Build 137)  -->
  <defs>
    <style>
      .st0 {
        fill: #fff;
      }

      .st1 {
        display: none;
        fill: url(#linear-gradient1);
      }

      .st2 {
        fill: url(#linear-gradient);
      }
    </style>
    <linearGradient id="linear-gradient" x1="0" y1="512" x2="1024" y2="512" gradientUnits="userSpaceOnUse">
      <stop offset="0" stop-color="#3b82f6"/>
      <stop offset=".5" stop-color="#6366f1"/>
      <stop offset="1" stop-color="#8b5cf6"/>
    </linearGradient>
    <linearGradient id="linear-gradient1" x1="16" y1="513.1" x2="54.4" y2="513.1" gradientTransform="translate(-498.8 -14265.2) scale(28.8)" xlink:href="#linear-gradient"/>
  </defs>
  <rect class="st2" width="1024" height="1024"/>
  <circle class="st1" cx="512.5" cy="512" r="512"/>
  <path class="st0" d="M887.9,206.3c20.7,20.2,32.5,48.8,32,77.7-.5,29.6-14.1,57.1-35.8,76.9l-494,490.5-248.8-252.3c-28.7-39.5-57.2-67.5-18.3-130.3,22.8-36.8,75.9-66.2,116.4-37.9,65.4,45.7,103.7,90.3,145.4,128.4,0,0,355.6-359.6,355.6-359.6,7.9-7.9,17.1-14.5,27.3-19,48-21.3,98.1,4.2,120.2,25.6Z"/>
  <path class="st0" d="M766.8,207.2"/>
</svg>